<mxfile host="app.diagrams.net" agent="Mozilla/5.0 (Windows NT 10.0; Win64; x64) AppleWebKit/537.36 (KHTML, like Gecko) Chrome/138.0.0.0 Safari/537.36" version="28.0.7" pages="2">
  <diagram name="Halaman-1" id="e0aKvuMQ2qiqTib229e1">
    <mxGraphModel dx="1025" dy="1586" grid="1" gridSize="10" guides="1" tooltips="1" connect="1" arrows="1" fold="1" page="1" pageScale="1" pageWidth="827" pageHeight="1169" math="0" shadow="0">
      <root>
        <mxCell id="0" />
        <mxCell id="1" parent="0" />
        <mxCell id="M7U0aeHh5VG94TePjW-i-2" value="data diri digital" style="rounded=0;whiteSpace=wrap;html=1;strokeColor=default;" parent="1" vertex="1">
          <mxGeometry x="330" y="-960" width="190" height="60" as="geometry" />
        </mxCell>
        <mxCell id="7PyiYFB4cAb-HCkh79iO-1" value="" style="endArrow=none;html=1;rounded=0;entryX=0.5;entryY=1;entryDx=0;entryDy=0;" edge="1" parent="1" target="7PyiYFB4cAb-HCkh79iO-7">
          <mxGeometry width="50" height="50" relative="1" as="geometry">
            <mxPoint x="430" y="-540" as="sourcePoint" />
            <mxPoint x="422.5" y="-900" as="targetPoint" />
            <Array as="points">
              <mxPoint x="430" y="-770" />
              <mxPoint x="423" y="-790" />
              <mxPoint x="422.5" y="-830" />
              <mxPoint x="423" y="-900" />
            </Array>
          </mxGeometry>
        </mxCell>
        <mxCell id="7PyiYFB4cAb-HCkh79iO-2" value="" style="endArrow=none;html=1;rounded=0;" edge="1" parent="1" target="7PyiYFB4cAb-HCkh79iO-3">
          <mxGeometry width="50" height="50" relative="1" as="geometry">
            <mxPoint x="290" y="-750" as="sourcePoint" />
            <mxPoint x="510" y="-750" as="targetPoint" />
            <Array as="points">
              <mxPoint x="470" y="-750" />
            </Array>
          </mxGeometry>
        </mxCell>
        <mxCell id="7PyiYFB4cAb-HCkh79iO-3" value="nama:nizar.a" style="rounded=0;whiteSpace=wrap;html=1;" vertex="1" parent="1">
          <mxGeometry x="450" y="-780" width="120" height="60" as="geometry" />
        </mxCell>
        <mxCell id="7PyiYFB4cAb-HCkh79iO-4" value="" style="endArrow=none;html=1;rounded=0;" edge="1" parent="1" target="7PyiYFB4cAb-HCkh79iO-5">
          <mxGeometry width="50" height="50" relative="1" as="geometry">
            <mxPoint x="290" y="-690" as="sourcePoint" />
            <mxPoint x="310" y="-750" as="targetPoint" />
            <Array as="points">
              <mxPoint x="290" y="-710" />
              <mxPoint x="290" y="-720" />
            </Array>
          </mxGeometry>
        </mxCell>
        <mxCell id="7PyiYFB4cAb-HCkh79iO-6" style="edgeStyle=orthogonalEdgeStyle;rounded=0;orthogonalLoop=1;jettySize=auto;html=1;" edge="1" parent="1" source="7PyiYFB4cAb-HCkh79iO-5">
          <mxGeometry relative="1" as="geometry">
            <mxPoint x="290" y="-750" as="targetPoint" />
            <Array as="points" />
          </mxGeometry>
        </mxCell>
        <mxCell id="7PyiYFB4cAb-HCkh79iO-5" value="kelas:10" style="rounded=0;whiteSpace=wrap;html=1;" vertex="1" parent="1">
          <mxGeometry x="230" y="-660" width="120" height="60" as="geometry" />
        </mxCell>
        <mxCell id="7PyiYFB4cAb-HCkh79iO-7" value="umur:16" style="rounded=0;whiteSpace=wrap;html=1;" vertex="1" parent="1">
          <mxGeometry x="370" y="-710" width="120" height="60" as="geometry" />
        </mxCell>
        <mxCell id="7PyiYFB4cAb-HCkh79iO-8" value="" style="endArrow=none;html=1;rounded=0;entryX=0.569;entryY=1.061;entryDx=0;entryDy=0;entryPerimeter=0;" edge="1" parent="1" target="7PyiYFB4cAb-HCkh79iO-3">
          <mxGeometry width="50" height="50" relative="1" as="geometry">
            <mxPoint x="518" y="-500" as="sourcePoint" />
            <mxPoint x="520" y="-710" as="targetPoint" />
            <Array as="points">
              <mxPoint x="520" y="-640" />
            </Array>
          </mxGeometry>
        </mxCell>
        <mxCell id="7PyiYFB4cAb-HCkh79iO-9" value="hobi:futsal" style="rounded=0;whiteSpace=wrap;html=1;" vertex="1" parent="1">
          <mxGeometry x="460" y="-644.5" width="120" height="60" as="geometry" />
        </mxCell>
        <mxCell id="7PyiYFB4cAb-HCkh79iO-10" value="" style="endArrow=none;html=1;rounded=0;entryX=0.436;entryY=1.039;entryDx=0;entryDy=0;entryPerimeter=0;" edge="1" parent="1" target="7PyiYFB4cAb-HCkh79iO-5">
          <mxGeometry width="50" height="50" relative="1" as="geometry">
            <mxPoint x="282" y="-470" as="sourcePoint" />
            <mxPoint x="440" y="-530" as="targetPoint" />
          </mxGeometry>
        </mxCell>
        <mxCell id="7PyiYFB4cAb-HCkh79iO-11" value="cita cita:pengusaha" style="rounded=0;whiteSpace=wrap;html=1;" vertex="1" parent="1">
          <mxGeometry x="220" y="-520" width="120" height="60" as="geometry" />
        </mxCell>
        <mxCell id="7PyiYFB4cAb-HCkh79iO-12" value="belajar lebih suka:malam" style="rounded=0;whiteSpace=wrap;html=1;" vertex="1" parent="1">
          <mxGeometry x="470" y="-520" width="120" height="60" as="geometry" />
        </mxCell>
        <mxCell id="7PyiYFB4cAb-HCkh79iO-13" value="" style="endArrow=none;html=1;rounded=0;" edge="1" parent="1">
          <mxGeometry width="50" height="50" relative="1" as="geometry">
            <mxPoint x="280" y="-370" as="sourcePoint" />
            <mxPoint x="280" y="-450" as="targetPoint" />
          </mxGeometry>
        </mxCell>
        <mxCell id="7PyiYFB4cAb-HCkh79iO-15" value="gaya digital:nongki" style="rounded=0;whiteSpace=wrap;html=1;" vertex="1" parent="1">
          <mxGeometry x="220" y="-370" width="120" height="60" as="geometry" />
        </mxCell>
        <mxCell id="7PyiYFB4cAb-HCkh79iO-16" value="" style="endArrow=none;html=1;rounded=0;entryX=0.5;entryY=1;entryDx=0;entryDy=0;" edge="1" parent="1" source="7PyiYFB4cAb-HCkh79iO-17" target="7PyiYFB4cAb-HCkh79iO-12">
          <mxGeometry width="50" height="50" relative="1" as="geometry">
            <mxPoint x="530" y="-320" as="sourcePoint" />
            <mxPoint x="440" y="-350" as="targetPoint" />
          </mxGeometry>
        </mxCell>
        <mxCell id="7PyiYFB4cAb-HCkh79iO-18" value="" style="endArrow=none;html=1;rounded=0;entryX=0.5;entryY=1;entryDx=0;entryDy=0;" edge="1" parent="1" target="7PyiYFB4cAb-HCkh79iO-17">
          <mxGeometry width="50" height="50" relative="1" as="geometry">
            <mxPoint x="530" y="-320" as="sourcePoint" />
            <mxPoint x="530" y="-460" as="targetPoint" />
          </mxGeometry>
        </mxCell>
        <mxCell id="7PyiYFB4cAb-HCkh79iO-17" value="tempat nongki:dianama ae" style="rounded=0;whiteSpace=wrap;html=1;" vertex="1" parent="1">
          <mxGeometry x="470" y="-370" width="120" height="60" as="geometry" />
        </mxCell>
        <mxCell id="7PyiYFB4cAb-HCkh79iO-19" value="" style="endArrow=none;html=1;rounded=0;" edge="1" parent="1">
          <mxGeometry width="50" height="50" relative="1" as="geometry">
            <mxPoint x="430" y="-260" as="sourcePoint" />
            <mxPoint x="430" y="-540" as="targetPoint" />
          </mxGeometry>
        </mxCell>
        <mxCell id="7PyiYFB4cAb-HCkh79iO-20" value="" style="endArrow=none;html=1;rounded=0;" edge="1" parent="1">
          <mxGeometry width="50" height="50" relative="1" as="geometry">
            <mxPoint x="350" y="-260" as="sourcePoint" />
            <mxPoint x="510" y="-260" as="targetPoint" />
            <Array as="points">
              <mxPoint x="430" y="-260" />
            </Array>
          </mxGeometry>
        </mxCell>
        <mxCell id="7PyiYFB4cAb-HCkh79iO-21" value="" style="endArrow=none;html=1;rounded=0;" edge="1" parent="1">
          <mxGeometry width="50" height="50" relative="1" as="geometry">
            <mxPoint x="350" y="-200" as="sourcePoint" />
            <mxPoint x="350" y="-260" as="targetPoint" />
          </mxGeometry>
        </mxCell>
        <mxCell id="7PyiYFB4cAb-HCkh79iO-22" value="" style="endArrow=none;html=1;rounded=0;" edge="1" parent="1">
          <mxGeometry width="50" height="50" relative="1" as="geometry">
            <mxPoint x="510" y="-200" as="sourcePoint" />
            <mxPoint x="510" y="-260" as="targetPoint" />
          </mxGeometry>
        </mxCell>
        <mxCell id="7PyiYFB4cAb-HCkh79iO-23" value="teman di samping bau:tdk" style="rounded=0;whiteSpace=wrap;html=1;" vertex="1" parent="1">
          <mxGeometry x="280" y="-200" width="120" height="60" as="geometry" />
        </mxCell>
        <mxCell id="7PyiYFB4cAb-HCkh79iO-24" value="selesai" style="rounded=0;whiteSpace=wrap;html=1;" vertex="1" parent="1">
          <mxGeometry x="450" y="-200" width="120" height="60" as="geometry" />
        </mxCell>
      </root>
    </mxGraphModel>
  </diagram>
  <diagram id="DL2nnt5E9e5y8UiqymF7" name="Halaman-2">
    <mxGraphModel dx="1025" dy="417" grid="1" gridSize="10" guides="1" tooltips="1" connect="1" arrows="1" fold="1" page="1" pageScale="1" pageWidth="827" pageHeight="1169" math="0" shadow="0">
      <root>
        <mxCell id="0" />
        <mxCell id="1" parent="0" />
      </root>
    </mxGraphModel>
  </diagram>
</mxfile>
